<svg id="Capa_1" enable-background="new 0 0 484.846 484.846" height="512" viewBox="0 0 484.846 484.846" width="512" xmlns="http://www.w3.org/2000/svg"><g><g><path d="m360.001 52.729c-4.143 0-7.5-3.358-7.5-7.5v-31.698c0-4.142 3.357-7.5 7.5-7.5s7.5 3.358 7.5 7.5v31.698c0 4.142-3.358 7.5-7.5 7.5z" fill="#0055a3"/></g><g><path d="m376.982 21.031h-33.962c-4.143 0-7.5-3.358-7.5-7.5s3.357-7.5 7.5-7.5h33.962c4.143 0 7.5 3.358 7.5 7.5s-3.357 7.5-7.5 7.5z" fill="#0055a3"/></g><g><path d="m294.589 358.815v120h-262.212c-17.886 0-32.377-14.491-32.377-32.377v-87.623z" fill="#01998d"/><path d="m238.484 358.815v120h-206.107c-17.886 0-32.377-14.491-32.377-32.377v-87.623z" fill="#0ab69f"/><path d="m294.589 310.135v48.679h-294.589l41.627-42.623c3.781-3.872 8.977-6.057 14.389-6.057h238.573z" fill="#3c87d0"/><path d="m238.484 310.135v48.679h-238.484l41.627-42.623c3.781-3.872 8.977-6.057 14.389-6.057h182.468z" fill="#5f99d7"/><path d="m449.435 191.267v271.823c0 8.683-7.042 15.725-15.725 15.725h-165.407v-287.548z" fill="#0ab69f"/><path d="m424.575 191.267v271.823c0 8.683-7.041 15.725-15.725 15.725h-140.547v-287.548z" fill="#5de1c4"/><path d="m484.53 163.044-19.902 82.042c-1.2 4.958-5.638 8.445-10.743 8.445h-191.254c-5.106 0-9.543-3.487-10.743-8.445l-19.891-82.042c-1.687-6.962 3.578-13.664 10.732-13.664h231.057c7.155 0 12.43 6.702 10.744 13.664z" fill="#0055a3"/><path d="m457.575 163.044-19.891 82.042c-1.211 4.958-5.649 8.445-10.743 8.445h-164.31c-5.106 0-9.543-3.487-10.743-8.445l-19.891-82.042c-1.687-6.962 3.578-13.664 10.732-13.664h204.102c7.155 0 12.431 6.702 10.744 13.664z" fill="#0067c5"/><path d="m449.095 60.636-21.521 88.744h-138.543l-21.521-88.744c-1.902-7.845 4.041-15.408 12.125-15.408h157.336c8.083.001 14.026 7.563 12.124 15.408z" fill="#3c87d0"/><path d="m421.246 60.636-21.521 88.744h-110.694l-21.521-88.744c-1.902-7.845 4.041-15.408 12.125-15.408h129.487c8.083.001 14.026 7.563 12.124 15.408z" fill="#5f99d7"/><path d="m420.875 219.569h-122.835c-2.043 0-3.7-1.656-3.7-3.7v-28.827c0-2.043 1.656-3.7 3.7-3.7h122.835c2.043 0 3.7 1.656 3.7 3.7v28.827c0 2.044-1.657 3.7-3.7 3.7z" fill="#5f99d7"/><path d="m229.812 414.664v64.151h-73.585v-64.151c0-7.711 6.251-13.962 13.962-13.962h45.66c7.712 0 13.963 6.251 13.963 13.962z" fill="#c2fae3"/><g fill="#5f99d7"><path d="m395.095 414.664v64.151h-73.585v-64.151c0-7.711 6.251-13.962 13.962-13.962h45.66c7.712 0 13.963 6.251 13.963 13.962z"/><path d="m72.474 123.744 148.814-94.11c2.274-1.438 2.687-4.593.844-6.553-6.613-7.032-22.054-20.264-37.66-10.759-20.651 12.577-60.008 39.378-60.008 39.378l-57.928-22.288-21.538 9.237c-2.164.928-2.628 3.792-.868 5.356l35.289 31.353-28.581 25.9-32.928-4.482-9.217 6.34c-1.387.954-1.488 2.967-.202 4.054l15.308 12.947c7.301 6.175 16.606 9.472 26.166 9.272l4.045-.085c6.546-.138 12.93-2.06 18.464-5.56z"/></g></g><g><path d="m114.34 408.202h-73.586c-4.143 0-7.5-3.358-7.5-7.5s3.357-7.5 7.5-7.5h73.586c4.143 0 7.5 3.358 7.5 7.5s-3.357 7.5-7.5 7.5z" fill="#5de1c4"/></g><g><path d="m395.095 292.73h-73.585c-4.143 0-7.5-3.358-7.5-7.5s3.357-7.5 7.5-7.5h73.585c4.143 0 7.5 3.358 7.5 7.5s-3.357 7.5-7.5 7.5z" fill="#c2fae3"/></g><g><circle cx="337.334" cy="97.695" fill="#d3e1f5" r="8.315"/></g><g><circle cx="377.723" cy="97.695" fill="#d3e1f5" r="8.315"/></g></g></svg>