<?xml version="1.0" encoding="iso-8859-1"?>
<!-- Generator: Adobe Illustrator 19.0.0, SVG Export Plug-In . SVG Version: 6.00 Build 0)  -->
<svg version="1.1" id="Capa_1" xmlns="http://www.w3.org/2000/svg" xmlns:xlink="http://www.w3.org/1999/xlink" x="0px" y="0px"
	 viewBox="0 0 512 512" style="enable-background:new 0 0 512 512;" xml:space="preserve">
<rect x="85.988" y="206.135" style="fill:#656D78;" width="339.017" height="249.27"/>
<path style="fill:#CE9841;" d="M215.628,390.601h-32.332c4.095-0.042,7.401-3.37,7.401-7.474v-49.864
	c0-4.131-3.347-7.478-7.478-7.478h-32.236c4.05-0.094,7.305-3.397,7.305-7.469v-49.864c0-4.131-3.347-7.478-7.478-7.478h-49.863
	c-4.131,0-7.478,3.347-7.478,7.478l-0.001,179.491c0,0.002-0.001,0.003-0.001,0.003c-0.009,4.125-3.351,7.464-7.477,7.464
	l129.638,0.011c4.131,0,7.478-3.347,7.478-7.478v-49.864C223.106,393.948,219.758,390.601,215.628,390.601z"/>
<path style="fill:#F6BB42;" d="M215.628,455.421h-49.863c-4.131,0-7.478-3.347-7.478-7.478v-49.864c0-4.131,3.347-7.478,7.478-7.478
	h49.863c4.131,0,7.478,3.347,7.478,7.478v49.864C223.106,452.073,219.758,455.421,215.628,455.421z"/>
<path style="fill:#DCA746;" d="M183.219,390.605h-49.863c-4.131,0-7.478-3.347-7.478-7.478v-49.864c0-4.131,3.347-7.478,7.478-7.478
	h49.863c4.131,0,7.478,3.347,7.478,7.478v49.864C190.697,387.257,187.349,390.605,183.219,390.605z"/>
<g>
	<path style="fill:#FFCE54;" d="M150.81,325.794h-49.863c-4.131,0-7.478-3.347-7.478-7.478v-49.864c0-4.131,3.347-7.478,7.478-7.478
		h49.863c4.131,0,7.478,3.347,7.478,7.478v49.864C158.288,322.446,154.941,325.794,150.81,325.794z"/>
	<path style="fill:#FFCE54;" d="M150.809,455.421h-49.863c-4.131,0-7.478-3.347-7.478-7.478v-49.864
		c0-4.131,3.347-7.478,7.478-7.478h49.863c4.131,0,7.478,3.347,7.478,7.478v49.864C158.287,452.073,154.94,455.421,150.809,455.421z
		"/>
</g>
<path style="fill:#ED5565;" d="M503.272,138.723c-0.002-0.161-0.012-0.319-0.024-0.479c-0.007-0.096-0.015-0.191-0.026-0.287
	c-0.017-0.138-0.038-0.273-0.063-0.409c-0.02-0.115-0.04-0.228-0.065-0.342c-0.025-0.111-0.056-0.221-0.085-0.331
	c-0.036-0.131-0.072-0.26-0.114-0.388c-0.03-0.093-0.066-0.183-0.101-0.274c-0.051-0.137-0.104-0.272-0.161-0.405
	c-0.039-0.086-0.082-0.171-0.124-0.255c-0.063-0.129-0.126-0.257-0.195-0.381c-0.053-0.094-0.11-0.183-0.167-0.273
	c-0.067-0.109-0.135-0.218-0.207-0.323c-0.071-0.104-0.149-0.202-0.226-0.302c-0.066-0.086-0.133-0.173-0.202-0.257
	c-0.091-0.107-0.187-0.21-0.284-0.313c-0.066-0.069-0.131-0.141-0.198-0.206c-0.104-0.103-0.213-0.198-0.323-0.294
	c-0.073-0.064-0.146-0.128-0.22-0.188c-0.107-0.085-0.217-0.166-0.328-0.245c-0.091-0.064-0.18-0.13-0.273-0.19
	c-0.101-0.064-0.202-0.125-0.307-0.186c-0.115-0.067-0.23-0.134-0.351-0.195c-0.09-0.046-0.181-0.089-0.272-0.131
	c-0.14-0.065-0.28-0.128-0.424-0.184c-0.039-0.015-0.075-0.034-0.114-0.049L258.116,42.092c-0.032-0.012-0.065-0.02-0.098-0.031
	c-0.124-0.044-0.25-0.081-0.377-0.119c-0.111-0.033-0.223-0.07-0.335-0.098c-0.119-0.03-0.239-0.052-0.36-0.076
	c-0.122-0.023-0.242-0.051-0.364-0.068c-0.111-0.017-0.222-0.024-0.333-0.035c-0.133-0.014-0.265-0.03-0.397-0.037
	c-0.104-0.004-0.208-0.001-0.313-0.002c-0.14,0-0.278-0.003-0.417,0.004c-0.101,0.005-0.199,0.019-0.3,0.027
	c-0.145,0.014-0.288,0.025-0.431,0.047c-0.094,0.014-0.185,0.035-0.279,0.053c-0.15,0.029-0.299,0.057-0.446,0.094
	c-0.088,0.022-0.175,0.052-0.262,0.077c-0.152,0.044-0.303,0.09-0.451,0.144c-0.026,0.01-0.053,0.016-0.079,0.025L13.574,131.835
	c-0.036,0.014-0.07,0.032-0.106,0.046c-0.146,0.059-0.29,0.121-0.432,0.187c-0.09,0.043-0.179,0.084-0.266,0.129
	c-0.121,0.063-0.237,0.13-0.355,0.198c-0.104,0.061-0.204,0.12-0.304,0.184c-0.094,0.062-0.183,0.127-0.273,0.191
	c-0.111,0.08-0.222,0.16-0.328,0.244c-0.075,0.062-0.146,0.126-0.22,0.189c-0.109,0.096-0.218,0.19-0.321,0.292
	c-0.069,0.068-0.135,0.14-0.2,0.209c-0.097,0.103-0.192,0.204-0.283,0.312c-0.071,0.084-0.138,0.173-0.204,0.26
	c-0.076,0.099-0.153,0.195-0.223,0.298c-0.075,0.108-0.144,0.219-0.212,0.33c-0.055,0.089-0.111,0.176-0.162,0.267
	c-0.072,0.128-0.137,0.259-0.2,0.392c-0.04,0.082-0.081,0.162-0.118,0.244c-0.061,0.138-0.114,0.276-0.167,0.418
	c-0.032,0.086-0.066,0.173-0.096,0.26c-0.043,0.133-0.08,0.268-0.117,0.403c-0.028,0.105-0.057,0.207-0.081,0.313
	c-0.026,0.118-0.047,0.237-0.067,0.357c-0.023,0.131-0.045,0.261-0.061,0.393c-0.012,0.101-0.019,0.201-0.027,0.303
	c-0.012,0.154-0.021,0.308-0.023,0.462c0,0.04-0.006,0.079-0.006,0.119v29.912c0,0.055,0.007,0.107,0.008,0.162
	c0.004,0.154,0.011,0.308,0.023,0.462c0.009,0.107,0.022,0.214,0.035,0.321c0.017,0.129,0.035,0.258,0.059,0.388
	c0.024,0.132,0.053,0.261,0.083,0.392c0.024,0.102,0.05,0.204,0.079,0.306c0.043,0.151,0.09,0.298,0.142,0.445
	c0.019,0.051,0.03,0.102,0.049,0.152c0.01,0.025,0.023,0.047,0.033,0.071c0.128,0.329,0.274,0.648,0.445,0.952
	c0.027,0.051,0.059,0.097,0.088,0.145c0.152,0.256,0.317,0.502,0.497,0.737c0.043,0.056,0.083,0.114,0.127,0.17
	c0.199,0.246,0.417,0.478,0.645,0.697c0.064,0.061,0.13,0.118,0.194,0.176c0.227,0.203,0.464,0.395,0.714,0.568
	c0.021,0.014,0.038,0.03,0.058,0.043c0.275,0.187,0.568,0.351,0.869,0.502c0.058,0.029,0.115,0.057,0.174,0.084
	c0.598,0.279,1.237,0.481,1.908,0.594c0.085,0.015,0.169,0.027,0.254,0.039c0.302,0.041,0.608,0.067,0.922,0.07
	c0.024,0,0.049,0.006,0.074,0.006c0.242,0,0.485-0.015,0.729-0.039c0.064-0.006,0.128-0.018,0.192-0.025
	c0.164-0.021,0.327-0.044,0.492-0.076c0.108-0.021,0.214-0.047,0.32-0.072c0.116-0.028,0.23-0.056,0.347-0.09
	c0.126-0.036,0.248-0.078,0.371-0.121c0.058-0.02,0.116-0.034,0.173-0.056l236.679-88.757l237.678,88.76
	c0.058,0.021,0.116,0.036,0.173,0.056c0.121,0.043,0.242,0.083,0.365,0.119c0.115,0.033,0.229,0.061,0.345,0.088
	c0.107,0.025,0.213,0.053,0.322,0.073c0.163,0.031,0.324,0.054,0.487,0.075c0.065,0.008,0.13,0.02,0.195,0.025
	c0.243,0.024,0.486,0.039,0.727,0.039c0.024,0,0.049-0.006,0.074-0.006c0.313-0.003,0.621-0.029,0.924-0.07
	c0.085-0.012,0.168-0.024,0.251-0.039c0.675-0.113,1.316-0.315,1.916-0.597c0.057-0.026,0.111-0.053,0.167-0.08
	c0.303-0.151,0.597-0.316,0.875-0.507c0.018-0.012,0.033-0.025,0.051-0.038c0.254-0.176,0.494-0.371,0.724-0.577
	c0.063-0.056,0.125-0.111,0.186-0.169c0.23-0.222,0.449-0.455,0.649-0.704c0.044-0.054,0.083-0.111,0.125-0.167
	c0.182-0.237,0.35-0.486,0.502-0.746c0.027-0.046,0.058-0.09,0.084-0.137c0.171-0.305,0.316-0.624,0.444-0.954
	c0.01-0.025,0.025-0.049,0.035-0.075c0.019-0.051,0.031-0.103,0.049-0.154c0.05-0.144,0.097-0.287,0.138-0.435
	c0.03-0.106,0.057-0.211,0.082-0.317c0.029-0.126,0.057-0.25,0.079-0.378c0.024-0.135,0.045-0.268,0.061-0.402
	c0.013-0.102,0.024-0.202,0.033-0.306c0.013-0.159,0.021-0.317,0.023-0.476c0.001-0.05,0.008-0.099,0.008-0.149v-29.912
	C503.278,138.799,503.273,138.762,503.272,138.723z"/>
<path style="fill:#DA4453;" d="M503.272,138.723c-0.002-0.161-0.012-0.319-0.024-0.479c-0.007-0.096-0.015-0.191-0.026-0.287
	c-0.017-0.138-0.038-0.273-0.063-0.409c-0.02-0.115-0.04-0.228-0.065-0.342c-0.025-0.111-0.056-0.221-0.085-0.331
	c-0.036-0.131-0.072-0.26-0.114-0.388c-0.03-0.093-0.066-0.183-0.101-0.274c-0.051-0.137-0.104-0.272-0.161-0.405
	c-0.039-0.086-0.082-0.171-0.124-0.255c-0.063-0.129-0.126-0.257-0.195-0.381c-0.053-0.094-0.11-0.183-0.167-0.273
	c-0.067-0.109-0.135-0.218-0.207-0.323c-0.071-0.104-0.149-0.202-0.226-0.302c-0.066-0.086-0.133-0.173-0.202-0.257
	c-0.091-0.107-0.187-0.21-0.284-0.313c-0.066-0.069-0.131-0.141-0.198-0.206c-0.104-0.103-0.213-0.198-0.323-0.294
	c-0.073-0.064-0.146-0.128-0.22-0.188c-0.107-0.085-0.217-0.166-0.328-0.245c-0.091-0.064-0.18-0.13-0.273-0.19
	c-0.101-0.064-0.202-0.125-0.307-0.186c-0.115-0.067-0.23-0.134-0.351-0.195c-0.09-0.046-0.181-0.089-0.272-0.131
	c-0.14-0.065-0.28-0.128-0.424-0.184c-0.039-0.015-0.075-0.034-0.114-0.049l-25.798-9.635c0.034,0.208,0.068,0.417,0.1,0.628
	c0.059,0.4,0.111,0.812,0.162,1.224c0.034,0.276,0.07,0.549,0.101,0.829c0.042,0.386,0.078,0.777,0.114,1.172
	c0.029,0.332,0.06,0.664,0.085,1c0.025,0.341,0.046,0.686,0.065,1.032c0.024,0.409,0.046,0.821,0.063,1.235
	c0.012,0.288,0.02,0.579,0.026,0.867c0.013,0.483,0.022,0.962,0.024,1.447c0.001,0.118,0.006,0.229,0.006,0.348v36.374l19.821,7.402
	c0.058,0.021,0.116,0.036,0.173,0.056c0.121,0.043,0.242,0.083,0.365,0.119c0.115,0.033,0.229,0.061,0.345,0.088
	c0.107,0.025,0.213,0.053,0.322,0.073c0.163,0.031,0.324,0.054,0.487,0.075c0.065,0.008,0.13,0.02,0.195,0.025
	c0.243,0.024,0.486,0.039,0.727,0.039c0.024,0,0.049-0.006,0.074-0.006c0.313-0.003,0.621-0.029,0.924-0.07
	c0.085-0.012,0.168-0.024,0.251-0.039c0.675-0.113,1.316-0.315,1.916-0.597c0.057-0.026,0.111-0.053,0.167-0.08
	c0.303-0.151,0.597-0.316,0.875-0.507c0.018-0.012,0.033-0.025,0.051-0.038c0.254-0.176,0.494-0.371,0.724-0.577
	c0.063-0.056,0.125-0.111,0.186-0.169c0.23-0.222,0.449-0.455,0.649-0.704c0.044-0.054,0.083-0.111,0.125-0.167
	c0.182-0.237,0.35-0.486,0.502-0.746c0.027-0.046,0.058-0.09,0.084-0.137c0.171-0.305,0.316-0.624,0.444-0.954
	c0.01-0.025,0.025-0.049,0.035-0.075c0.019-0.051,0.031-0.103,0.049-0.154c0.05-0.144,0.097-0.287,0.138-0.435
	c0.03-0.106,0.057-0.211,0.082-0.317c0.029-0.126,0.057-0.25,0.079-0.378c0.024-0.135,0.045-0.268,0.061-0.402
	c0.013-0.102,0.024-0.202,0.033-0.306c0.013-0.159,0.021-0.317,0.023-0.476c0.001-0.05,0.008-0.099,0.008-0.149V138.84
	C503.278,138.799,503.273,138.762,503.272,138.723z"/>
<path style="fill:#F6BB42;" d="M118.401,325.785H93.47v64.82h24.931c4.131,0,7.478-3.347,7.478-7.478v-49.864
	C125.879,329.132,122.532,325.785,118.401,325.785z"/>
<path style="fill:#CE9841;" d="M295.367,390.601h32.332c-4.095-0.042-7.401-3.37-7.401-7.474v-49.864
	c0-4.131,3.348-7.478,7.478-7.478h32.236c-4.049-0.094-7.305-3.397-7.305-7.469v-49.864c0-4.131,3.347-7.478,7.478-7.478h49.863
	c4.131,0,7.478,3.347,7.478,7.478l0.001,179.491c0,0.002,0.001,0.003,0.001,0.003c0.009,4.125,3.351,7.464,7.477,7.464
	l-129.638,0.011c-4.131,0-7.478-3.347-7.478-7.478v-49.864C287.889,393.948,291.237,390.601,295.367,390.601z"/>
<path style="fill:#F6BB42;" d="M287.889,447.943v-49.864c0-4.131,3.347-7.478,7.478-7.478h49.863c4.131,0,7.478,3.347,7.478,7.478
	v49.864c0,4.131-3.347,7.478-7.478,7.478h-49.863C291.237,455.421,287.889,452.073,287.889,447.943z"/>
<path style="fill:#DCA746;" d="M320.298,383.127v-49.864c0-4.131,3.348-7.478,7.478-7.478h49.863c4.131,0,7.478,3.347,7.478,7.478
	v49.864c0,4.131-3.347,7.478-7.478,7.478h-49.863C323.646,390.605,320.298,387.257,320.298,383.127z"/>
<g>
	<path style="fill:#FFCE54;" d="M352.707,318.316v-49.864c0-4.131,3.347-7.478,7.478-7.478h49.863c4.131,0,7.478,3.347,7.478,7.478
		v49.864c0,4.131-3.347,7.478-7.478,7.478h-49.863C356.055,325.794,352.707,322.446,352.707,318.316z"/>
	<path style="fill:#FFCE54;" d="M352.708,447.943v-49.864c0-4.131,3.347-7.478,7.478-7.478h49.863c4.131,0,7.478,3.347,7.478,7.478
		v49.864c0,4.131-3.347,7.478-7.478,7.478h-49.863C356.056,455.421,352.708,452.073,352.708,447.943z"/>
</g>
<path style="fill:#F6BB42;" d="M392.594,325.785h24.931v64.82h-24.931c-4.131,0-7.478-3.347-7.478-7.478v-49.864
	C385.116,329.132,388.464,325.785,392.594,325.785z"/>
<g>
	<path style="fill:#E6E9ED;" d="M255.505,86.995L38.639,168.322v206.827v65.305v7.478c0,0.003,0,0.006,0,0.006
		c0,4.133,3.347,7.48,7.478,7.48c0.053,0,0.103-0.007,0.154-0.008h39.72c4.131,0,7.478-3.347,7.478-7.478V206.138h324.065v241.794
		c0,4.131,3.347,7.478,7.478,7.478h39.726c0.052,0.001,0.102,0.008,0.154,0.008c4.13,0,7.478-3.347,7.478-7.478v-76.447V167.982
		L255.505,86.995z"/>
	<path style="fill:#E6E9ED;" d="M46.117,455.418c0.053,0,0.103-0.007,0.154-0.008h-0.308
		C46.014,455.411,46.064,455.418,46.117,455.418z"/>
</g>
<path style="fill:#DADDE1;" d="M442.453,156.89v214.603v76.447c0,4.078-3.264,7.387-7.324,7.47h29.606
	c0.052,0.001,0.102,0.008,0.154,0.008c4.13,0,7.478-3.347,7.478-7.478v-76.447V167.982L442.453,156.89z"/>
<path style="fill:#ED5565;" d="M93.468,206.138v22.93l0.001,0.001c0.001,4.129,3.348,7.477,7.478,7.477h0.001l0,0h309.105l0,0h0.001
	c4.13,0,7.478-3.348,7.478-7.478v-22.93H93.468z"/>
<path style="fill:#434A54;" d="M504.522,470.373H7.478c-4.131,0-7.478-3.347-7.478-7.478c0-4.131,3.347-7.478,7.478-7.478h497.044
	c4.131,0,7.478,3.347,7.478,7.478C512,467.026,508.653,470.373,504.522,470.373z"/>
</svg>
